PathFileType	4	(X/Y/Z)	C:\Users\italobelli\Desktop\GitHub\PTbot_officialCBL\Personal_Results\SHRUG03_noisy1.trc
DataRate	CameraRate	NumFrames	NumMarkers	Units	OrigDataRate	OrigDataStartFrame	OrigNumFrames
110.888889	110.888889	17	9	m	110.888889	251	500
Frame#	Time		gu		centelbow		EpL		centpxt8		centijc7		ts		aa		ai		ij
			X1	Y1	Z1	X2	Y2	Z2	X3	Y3	Z3	X4	Y4	Z4	X5	Y5	Z5	X6	Y6	Z6	X7	Y7	Z7	X8	Y8	Z8	X9	Y9	Z9

251	2.2545	-0.076303	0.013391	0.1666	-0.10303	-0.22049	0.20723	-0.082984	-0.21433	0.2316	-0.046816	-0.15316	-0.008669	-0.046816	0.031938	-0.008669	-0.13288	0.042009	0.051062	-0.102	0.050536	0.16492	-0.15477	-0.066751	0.071316	0	0	0
252	2.2635	-0.076593	0.012042	0.16665	-0.1037	-0.22188	0.20648	-0.083718	-0.2158	0.23093	-0.046816	-0.15316	-0.008669	-0.046816	0.031938	-0.008669	-0.13313	0.041341	0.051235	-0.10238	0.049127	0.1652	-0.155	-0.067566	0.070743	0	0	0
253	2.2725	-0.07688	0.010703	0.1667	-0.10436	-0.22326	0.20573	-0.084448	-0.21725	0.23025	-0.046816	-0.15316	-0.008669	-0.046816	0.031938	-0.008669	-0.13337	0.040675	0.051408	-0.10275	0.04773	0.16548	-0.15523	-0.068376	0.070174	0	0	0
254	2.2816	-0.077165	0.0093761	0.16674	-0.10502	-0.22463	0.20499	-0.085175	-0.2187	0.22959	-0.046816	-0.15316	-0.008669	-0.046816	0.031938	-0.008669	-0.13361	0.040014	0.051578	-0.10313	0.046347	0.16576	-0.15546	-0.06918	0.069611	0	0	0
255	2.2906	-0.077447	0.0080651	0.16678	-0.10568	-0.22599	0.20426	-0.085896	-0.22013	0.22893	-0.046816	-0.15316	-0.008669	-0.046816	0.031938	-0.008669	-0.13385	0.039358	0.051747	-0.10349	0.04498	0.16603	-0.15569	-0.069976	0.069054	0	0	0
256	2.2996	-0.077726	0.0067726	0.16683	-0.10633	-0.22733	0.20354	-0.086611	-0.22154	0.22828	-0.046816	-0.15316	-0.008669	-0.046816	0.031938	-0.008669	-0.13409	0.038711	0.051913	-0.10386	0.043635	0.1663	-0.15591	-0.070761	0.068505	0	0	0
257	2.3086	-0.078	0.0055014	0.16687	-0.10698	-0.22865	0.20283	-0.087318	-0.22294	0.22764	-0.046816	-0.15316	-0.008669	-0.046816	0.031938	-0.008669	-0.13432	0.038072	0.052076	-0.10421	0.042312	0.16657	-0.15612	-0.071535	0.067966	0	0	0
258	2.3176	-0.07827	0.0042545	0.16691	-0.10762	-0.22996	0.20214	-0.088017	-0.22431	0.22701	-0.046816	-0.15316	-0.008669	-0.046816	0.031938	-0.008669	-0.13455	0.037445	0.052236	-0.10456	0.041016	0.16682	-0.15634	-0.072294	0.067436	0	0	0
259	2.3267	-0.078535	0.0030348	0.16695	-0.10825	-0.23123	0.20146	-0.088705	-0.22565	0.2264	-0.046816	-0.15316	-0.008669	-0.046816	0.031938	-0.008669	-0.13477	0.03683	0.052392	-0.1049	0.03975	0.16708	-0.15654	-0.073037	0.066917	0	0	0
260	2.3357	-0.078794	0.0018451	0.16698	-0.10887	-0.23248	0.20079	-0.089383	-0.22696	0.22579	-0.046816	-0.15316	-0.008669	-0.046816	0.031938	-0.008669	-0.13499	0.03623	0.052544	-0.10524	0.038517	0.16732	-0.15674	-0.073762	0.066411	0	0	0
261	2.3447	-0.079047	0.00068834	0.16702	-0.10948	-0.2337	0.20014	-0.090048	-0.22824	0.22521	-0.046816	-0.15316	-0.008669	-0.046816	0.031938	-0.008669	-0.13521	0.035646	0.052692	-0.10556	0.037319	0.16756	-0.15694	-0.074467	0.065918	0	0	0
262	2.3537	-0.079293	-0.00043261	0.16706	-0.11008	-0.23489	0.19951	-0.0907	-0.22949	0.22463	-0.046816	-0.15316	-0.008669	-0.046816	0.031938	-0.008669	-0.13542	0.03508	0.052834	-0.10588	0.036161	0.16779	-0.15712	-0.07515	0.065439	0	0	0
263	2.3627	-0.079533	-0.0015149	0.16709	-0.11066	-0.23604	0.1989	-0.091337	-0.2307	0.22408	-0.046816	-0.15316	-0.008669	-0.046816	0.031938	-0.008669	-0.13562	0.034533	0.052972	-0.10618	0.035044	0.16801	-0.1573	-0.075809	0.064976	0	0	0
264	2.3717	-0.079764	-0.0025555	0.16712	-0.11124	-0.23715	0.19831	-0.091958	-0.23186	0.22354	-0.046816	-0.15316	-0.008669	-0.046816	0.031938	-0.008669	-0.13582	0.034007	0.053103	-0.10647	0.033974	0.16822	-0.15748	-0.076442	0.064529	0	0	0
265	2.3808	-0.079988	-0.0035517	0.16715	-0.11179	-0.23822	0.19774	-0.092562	-0.23298	0.22303	-0.046816	-0.15316	-0.008669	-0.046816	0.031938	-0.008669	-0.13601	0.033505	0.053229	-0.10675	0.032951	0.16842	-0.15764	-0.077047	0.0641	0	0	0
266	2.3898	-0.080202	-0.0045005	0.16718	-0.11234	-0.23925	0.1972	-0.093147	-0.23405	0.22253	-0.046816	-0.15316	-0.008669	-0.046816	0.031938	-0.008669	-0.13619	0.033027	0.053348	-0.10702	0.03198	0.16861	-0.1578	-0.077622	0.06369	0	0	0
267	2.3988	-0.080408	-0.005399	0.16721	-0.11286	-0.24022	0.19668	-0.093714	-0.23507	0.22206	-0.046816	-0.15316	-0.008669	-0.046816	0.031938	-0.008669	-0.13636	0.032575	0.053461	-0.10728	0.031064	0.16879	-0.15795	-0.078166	0.063299	0	0	0
